<svg xmlns="http://www.w3.org/2000/svg" viewBox="0 0 1024 1024" role="img" aria-label="Recall workbench logo">
  <rect width="1024" height="1024" rx="224" fill="#fff"/>
  <g fill="#000">
    <rect x="184" y="294" width="656" height="130" rx="34"/>
    <rect x="248" y="434" width="528" height="78" rx="22"/>
    <path d="M292 516h124l-72 264c-8 30-35 51-66 51h-82l96-315z"/>
    <path d="M608 516h124l96 315h-82c-31 0-58-21-66-51l-72-264z"/>
    <path d="M338 676h348c24 0 44 20 44 44v42H294v-42c0-24 20-44 44-44z"/>
    <rect x="450" y="540" width="124" height="88" rx="22"/>
  </g>
</svg>
